<svg width="12" height="10" viewBox="0 0 12 10" fill="none" xmlns="http://www.w3.org/2000/svg">
<path d="M0 2.91667V1.16667C0 0.845833 0.114236 0.571181 0.342708 0.342708C0.571181 0.114236 0.845833 0 1.16667 0H10.5C10.8208 0 11.0955 0.114236 11.324 0.342708C11.5524 0.571181 11.6667 0.845833 11.6667 1.16667V2.91667H10.5V1.16667H1.16667V2.91667H0ZM1.16667 9.33333C0.845833 9.33333 0.571181 9.2191 0.342708 8.99063C0.114236 8.76215 0 8.4875 0 8.16667V6.41667H1.16667V8.16667H10.5V6.41667H11.6667V8.16667C11.6667 8.4875 11.5524 8.76215 11.324 8.99063C11.0955 9.2191 10.8208 9.33333 10.5 9.33333H1.16667ZM4.66667 7.58333C4.77361 7.58333 4.87569 7.5566 4.97292 7.50313C5.07014 7.44965 5.14306 7.36944 5.19167 7.2625L7 3.64583L7.64167 4.92917C7.69028 5.03611 7.76319 5.11632 7.86042 5.16979C7.95764 5.22326 8.05972 5.25 8.16667 5.25H11.6667V4.08333H8.53125L7.525 2.07083C7.47639 1.96389 7.40347 1.88854 7.30625 1.84479C7.20903 1.80104 7.10694 1.77917 7 1.77917C6.89306 1.77917 6.79097 1.80104 6.69375 1.84479C6.59653 1.88854 6.52361 1.96389 6.475 2.07083L4.66667 5.6875L4.025 4.40417C3.97639 4.29722 3.90347 4.21701 3.80625 4.16354C3.70903 4.11007 3.60694 4.08333 3.5 4.08333H0V5.25H3.13542L4.14167 7.2625C4.19028 7.36944 4.26319 7.44965 4.36042 7.50313C4.45764 7.5566 4.55972 7.58333 4.66667 7.58333Z" fill="#94A3B8"/>
</svg>
