<svg width="44" height="44" viewBox="0 0 44 44" fill="none" xmlns="http://www.w3.org/2000/svg">
<rect width="44" height="44" rx="8" fill="#003D9B"/>
<path d="M14 32C13.45 32 12.9792 31.8042 12.5875 31.4125C12.1958 31.0208 12 30.55 12 30V19C12 18.45 12.1958 17.9792 12.5875 17.5875C12.9792 17.1958 13.45 17 14 17H19V14C19 13.45 19.1958 12.9792 19.5875 12.5875C19.9792 12.1958 20.45 12 21 12H23C23.55 12 24.0208 12.1958 24.4125 12.5875C24.8042 12.9792 25 13.45 25 14V17H30C30.55 17 31.0208 17.1958 31.4125 17.5875C31.8042 17.9792 32 18.45 32 19V30C32 30.55 31.8042 31.0208 31.4125 31.4125C31.0208 31.8042 30.55 32 30 32H14ZM14 30H30V19H25C25 19.55 24.8042 20.0208 24.4125 20.4125C24.0208 20.8042 23.55 21 23 21H21C20.45 21 19.9792 20.8042 19.5875 20.4125C19.1958 20.0208 19 19.55 19 19H14V30ZM16 28H22V27.55C22 27.2667 21.9208 27.0042 21.7625 26.7625C21.6042 26.5208 21.3833 26.3333 21.1 26.2C20.7667 26.05 20.4292 25.9375 20.0875 25.8625C19.7458 25.7875 19.3833 25.75 19 25.75C18.6167 25.75 18.2542 25.7875 17.9125 25.8625C17.5708 25.9375 17.2333 26.05 16.9 26.2C16.6167 26.3333 16.3958 26.5208 16.2375 26.7625C16.0792 27.0042 16 27.2667 16 27.55V28ZM24 26.5H28V25H24V26.5ZM19 25C19.4167 25 19.7708 24.8542 20.0625 24.5625C20.3542 24.2708 20.5 23.9167 20.5 23.5C20.5 23.0833 20.3542 22.7292 20.0625 22.4375C19.7708 22.1458 19.4167 22 19 22C18.5833 22 18.2292 22.1458 17.9375 22.4375C17.6458 22.7292 17.5 23.0833 17.5 23.5C17.5 23.9167 17.6458 24.2708 17.9375 24.5625C18.2292 24.8542 18.5833 25 19 25ZM24 23.5H28V22H24V23.5ZM21 19H23V14H21V19Z" fill="white"/>
</svg>
