<svg width="192" height="192" viewBox="0 0 192 192" fill="none" xmlns="http://www.w3.org/2000/svg">
<path d="M8 96C8 144.569 47.4315 184 96 184C144.569 184 184 144.569 184 96C184 47.4315 144.569 8 96 8C47.4315 8 8 47.4315 8 96V96" stroke="white" stroke-opacity="0.1" stroke-width="12"/>
<path d="M8 96C8 144.569 47.4315 184 96 184C144.569 184 184 144.569 184 96C184 47.4315 144.569 8 96 8C47.4315 8 8 47.4315 8 96V96" stroke="white" stroke-width="12" stroke-linecap="round"/>
<path d="M50.8048 101.96L50.8128 96.9041L65.5888 83.728C66.7408 82.7067 67.5395 81.7407 67.9848 80.83C68.4302 79.9193 68.6528 79.0373 68.6528 78.184C68.6528 77.0373 68.4075 76.0113 67.9168 75.1059C67.4261 74.2006 66.7448 73.4859 65.8728 72.9619C65.0008 72.4379 63.9914 72.1759 62.8448 72.1759C61.6501 72.1759 60.5934 72.4526 59.6747 73.0059C58.7561 73.5593 58.04 74.2893 57.5267 75.1959C57.0134 76.1026 56.77 77.0853 56.7967 78.144H50.8608C50.8608 75.8427 51.3748 73.8367 52.4028 72.126C53.4308 70.4153 54.8528 69.0867 56.6688 68.14C58.4848 67.1933 60.5834 66.72 62.9648 66.72C65.1808 66.72 67.1667 67.212 68.9227 68.196C70.6787 69.18 72.0621 70.5407 73.0727 72.278C74.0834 74.0153 74.5887 76.0107 74.5887 78.264C74.5887 79.9093 74.3654 81.2913 73.9187 82.41C73.4721 83.5286 72.8041 84.562 71.9148 85.51C71.0254 86.458 69.9248 87.5066 68.6128 88.656L58.1246 97.9441L57.5886 96.5041H74.5887V101.96H50.8048ZM92.7808 102V96.296H77.4688V90.88L88.5328 67.44H95.1407L84.0767 90.88H92.7808V81.88H98.6367V90.88H101.885V96.296H98.6367V102H92.7808ZM106.677 102V96.0801H112.597V102H106.677ZM118.365 101.96L118.373 96.9041L133.149 83.728C134.301 82.7067 135.099 81.7407 135.545 80.83C135.99 79.9193 136.213 79.0373 136.213 78.184C136.213 77.0373 135.967 76.0113 135.477 75.1059C134.986 74.2006 134.305 73.4859 133.433 72.9619C132.561 72.4379 131.551 72.1759 130.405 72.1759C129.21 72.1759 128.153 72.4526 127.235 73.0059C126.316 73.5593 125.6 74.2893 125.087 75.1959C124.573 76.1026 124.33 77.0853 124.357 78.144H118.421C118.421 75.8427 118.935 73.8367 119.963 72.126C120.991 70.4153 122.413 69.0867 124.229 68.14C126.045 67.1933 128.143 66.72 130.525 66.72C132.741 66.72 134.727 67.212 136.483 68.196C138.239 69.18 139.622 70.5407 140.633 72.278C141.643 74.0153 142.149 76.0107 142.149 78.264C142.149 79.9093 141.925 81.2913 141.479 82.41C141.032 83.5286 140.364 84.562 139.475 85.51C138.585 86.458 137.485 87.5066 136.173 88.656L125.685 97.9441L125.149 96.5041H142.149V101.96H118.365Z" fill="white"/>
<path opacity="0.8" d="M79.2608 125.936V124.091H79.5027L81.8648 121.449H83.6544L80.758 124.677H80.4425L79.2608 125.936ZM77.8677 128V119.27H79.3907V128H77.8677ZM81.9744 128L79.8294 125.016L80.8621 123.937L83.8068 128H81.9744ZM87.8554 130.59C87.3302 130.59 86.8737 130.523 86.4857 130.391C86.0977 130.258 85.7799 130.077 85.5321 129.847C85.2844 129.618 85.1055 129.36 84.9955 129.073L86.2876 128.61C86.3561 128.733 86.4515 128.857 86.574 128.985C86.6965 129.113 86.8608 129.219 87.0669 129.304C87.273 129.389 87.5344 129.432 87.8512 129.432C88.324 129.432 88.7022 129.321 88.986 129.101C89.2698 128.88 89.4116 128.536 89.4116 128.067V126.826H89.2867C89.2097 126.985 89.0992 127.147 88.9553 127.314C88.8114 127.48 88.6173 127.62 88.3731 127.733C88.1289 127.846 87.8183 127.903 87.4415 127.903C86.9391 127.903 86.4839 127.785 86.0758 127.548C85.6676 127.311 85.3435 126.956 85.1035 126.482C84.8634 126.008 84.7433 125.417 84.7433 124.708C84.7433 123.99 84.8642 123.383 85.106 122.886C85.3478 122.389 85.6734 122.012 86.0828 121.754C86.4922 121.496 86.9487 121.367 87.4523 121.367C87.839 121.367 88.1573 121.432 88.4071 121.56C88.6569 121.689 88.8562 121.845 89.0049 122.027C89.1535 122.21 89.2671 122.379 89.3455 122.534H89.4262V121.449H90.9219V128.02C90.9219 128.601 90.789 129.082 90.5231 129.462C90.2573 129.843 89.8934 130.126 89.4315 130.312C88.9697 130.497 88.4443 130.59 87.8554 130.59ZM87.8661 126.7C88.1999 126.7 88.4821 126.62 88.7126 126.461C88.9431 126.302 89.1185 126.072 89.2388 125.772C89.359 125.471 89.4191 125.112 89.4191 124.693C89.4191 124.279 89.3596 123.917 89.2407 123.607C89.1217 123.297 88.9469 123.055 88.7164 122.881C88.4858 122.707 88.2024 122.621 87.8661 122.621C87.5238 122.621 87.2365 122.711 87.0041 122.892C86.7718 123.074 86.5968 123.32 86.4792 123.631C86.3616 123.942 86.3029 124.296 86.3029 124.693C86.3029 125.096 86.3623 125.448 86.4811 125.75C86.5999 126.051 86.7755 126.285 87.0079 126.451C87.2402 126.617 87.5263 126.7 87.8661 126.7ZM96.6784 118.859L93.8659 129.312H92.5262L95.3387 118.859H96.6784ZM98.283 128V121.449H99.7133L99.7719 123.024H99.6604C99.7558 122.636 99.902 122.319 100.099 122.072C100.296 121.826 100.526 121.643 100.79 121.524C101.054 121.404 101.33 121.345 101.619 121.345C102.091 121.345 102.473 121.493 102.764 121.79C103.056 122.088 103.261 122.524 103.381 123.099H103.198C103.289 122.709 103.443 122.384 103.659 122.124C103.876 121.864 104.134 121.669 104.434 121.539C104.733 121.409 105.052 121.345 105.391 121.345C105.784 121.345 106.137 121.43 106.451 121.601C106.765 121.772 107.014 122.024 107.196 122.355C107.379 122.686 107.47 123.095 107.47 123.582V128H105.947V123.816C105.947 123.411 105.836 123.114 105.614 122.926C105.392 122.737 105.125 122.643 104.813 122.643C104.568 122.643 104.356 122.696 104.177 122.801C103.998 122.907 103.86 123.053 103.764 123.239C103.667 123.425 103.619 123.641 103.619 123.887V128H102.134V123.748C102.134 123.413 102.031 123.145 101.824 122.944C101.617 122.744 101.351 122.643 101.026 122.643C100.805 122.643 100.601 122.695 100.415 122.798C100.229 122.901 100.081 123.051 99.9709 123.25C99.8609 123.448 99.8059 123.693 99.8059 123.985V128H98.283ZM109.555 122.764V121.876L111.612 120.353C111.784 120.224 111.926 120.111 112.038 120.014C112.149 119.917 112.232 119.824 112.286 119.735C112.341 119.646 112.368 119.551 112.368 119.45C112.368 119.257 112.285 119.106 112.12 118.997C111.954 118.888 111.749 118.834 111.503 118.834C111.254 118.834 111.053 118.885 110.899 118.987C110.746 119.088 110.669 119.233 110.669 119.42H109.477C109.477 118.947 109.665 118.572 110.041 118.297C110.416 118.022 110.905 117.884 111.505 117.884C112.15 117.884 112.659 118.018 113.034 118.286C113.409 118.554 113.596 118.904 113.596 119.334C113.596 119.467 113.577 119.603 113.539 119.742C113.502 119.882 113.427 120.029 113.314 120.185C113.202 120.34 113.033 120.508 112.809 120.689C112.584 120.87 112.285 121.072 111.911 121.294L111.293 121.729V121.774H113.723V122.764H109.555Z" fill="white"/>
</svg>
