<svg width="118" height="84" viewBox="0 0 118 84" fill="none" xmlns="http://www.w3.org/2000/svg">
<g opacity="0.1">
<path d="M16.6667 83.3333C12.0833 83.3333 8.15972 81.7014 4.89583 78.4375C1.63194 75.1736 0 71.25 0 66.6667V25H44.7917L59.1667 53.75C59.8611 55.2778 60.9028 56.4236 62.2917 57.1875C63.6806 57.9514 65.1389 58.3333 66.6667 58.3333C68.1944 58.3333 69.6528 57.9514 71.0417 57.1875C72.4306 56.4236 73.4722 55.2778 74.1667 53.75L100 2.08333L109.167 20.4167C109.861 21.9444 110.903 23.0903 112.292 23.8542C113.681 24.6181 115.139 25 116.667 25H166.667V66.6667C166.667 71.25 165.035 75.1736 161.771 78.4375C158.507 81.7014 154.583 83.3333 150 83.3333H16.6667ZM0 8.33333V-33.3333C0 -37.9167 1.63194 -41.8403 4.89583 -45.1042C8.15972 -48.3681 12.0833 -50 16.6667 -50H150C154.583 -50 158.507 -48.3681 161.771 -45.1042C165.035 -41.8403 166.667 -37.9167 166.667 -33.3333V8.33333H121.875L107.5 -20.4167C106.806 -21.9444 105.764 -23.0208 104.375 -23.6458C102.986 -24.2708 101.528 -24.5833 100 -24.5833C98.4722 -24.5833 97.0139 -24.2708 95.625 -23.6458C94.2361 -23.0208 93.1944 -21.9444 92.5 -20.4167L66.6667 31.25L57.5 12.9167C56.8056 11.3889 55.7639 10.2431 54.375 9.47917C52.9861 8.71528 51.5278 8.33333 50 8.33333H0Z" fill="white"/>
</g>
</svg>
