<svg width="27" height="27" viewBox="0 0 27 27" fill="none" xmlns="http://www.w3.org/2000/svg">
<path d="M3 27C2.175 27 1.46875 26.7062 0.88125 26.1187C0.29375 25.5312 0 24.825 0 24V18H3V24H9V27H3ZM18 27V24H24V18H27V24C27 24.825 26.7062 25.5312 26.1187 26.1187C25.5312 26.7062 24.825 27 24 27H18ZM0 9V3C0 2.175 0.29375 1.46875 0.88125 0.88125C1.46875 0.29375 2.175 0 3 0H9V3H3V9H0ZM24 9V3H18V0H24C24.825 0 25.5312 0.29375 26.1187 0.88125C26.7062 1.46875 27 2.175 27 3V9H24ZM13.5 21C11.425 21 9.65625 20.2687 8.19375 18.8062C6.73125 17.3438 6 15.575 6 13.5C6 11.425 6.73125 9.65625 8.19375 8.19375C9.65625 6.73125 11.425 6 13.5 6C15.575 6 17.3438 6.73125 18.8062 8.19375C20.2687 9.65625 21 11.425 21 13.5C21 15.575 20.2687 17.3438 18.8062 18.8062C17.3438 20.2687 15.575 21 13.5 21Z" fill="white"/>
</svg>
