<svg width="20" height="25" viewBox="0 0 20 25" fill="none" xmlns="http://www.w3.org/2000/svg">
<path d="M10 25C7.10417 24.2708 4.71354 22.6094 2.82812 20.0156C0.942708 17.4219 0 14.5417 0 11.375V3.75L10 0L20 3.75V11.375C20 13.1458 19.6979 14.849 19.0938 16.4844C18.4896 18.1198 17.625 19.5625 16.5 20.8125L12.5 16.8125C12.125 17.0417 11.724 17.2135 11.2969 17.3281C10.8698 17.4427 10.4375 17.5 10 17.5C8.625 17.5 7.44792 17.0104 6.46875 16.0312C5.48958 15.0521 5 13.875 5 12.5C5 11.125 5.48958 9.94792 6.46875 8.96875C7.44792 7.98958 8.625 7.5 10 7.5C11.375 7.5 12.5521 7.98958 13.5312 8.96875C14.5104 9.94792 15 11.125 15 12.5C15 12.9583 14.9427 13.401 14.8281 13.8281C14.7135 14.2552 14.5417 14.6667 14.3125 15.0625L16.1875 16.9375C16.6042 16.0833 16.9271 15.1875 17.1562 14.25C17.3854 13.3125 17.5 12.3542 17.5 11.375V5.46875L10 2.65625L2.5 5.46875V11.375C2.5 13.8958 3.20833 16.1875 4.625 18.25C6.04167 20.3125 7.83333 21.6875 10 22.375C10.5417 22.2083 11.0573 21.9948 11.5469 21.7344C12.0365 21.474 12.5208 21.1667 13 20.8125L14.75 22.5625C14.0625 23.125 13.3177 23.6146 12.5156 24.0312C11.7135 24.4479 10.875 24.7708 10 25ZM10 15C10.6875 15 11.276 14.7552 11.7656 14.2656C12.2552 13.776 12.5 13.1875 12.5 12.5C12.5 11.8125 12.2552 11.224 11.7656 10.7344C11.276 10.2448 10.6875 10 10 10C9.3125 10 8.72396 10.2448 8.23438 10.7344C7.74479 11.224 7.5 11.8125 7.5 12.5C7.5 13.1875 7.74479 13.776 8.23438 14.2656C8.72396 14.7552 9.3125 15 10 15Z" fill="#96EBD5"/>
</svg>
