<svg width="20" height="25" viewBox="0 0 20 25" fill="none" xmlns="http://www.w3.org/2000/svg">
<path d="M8.125 16.25H11.875L11.1562 12.2188C11.5729 12.0104 11.901 11.7083 12.1406 11.3125C12.3802 10.9167 12.5 10.4792 12.5 10C12.5 9.3125 12.2552 8.72396 11.7656 8.23438C11.276 7.74479 10.6875 7.5 10 7.5C9.3125 7.5 8.72396 7.74479 8.23438 8.23438C7.74479 8.72396 7.5 9.3125 7.5 10C7.5 10.4792 7.61979 10.9167 7.85938 11.3125C8.09896 11.7083 8.42708 12.0104 8.84375 12.2188L8.125 16.25ZM10 25C7.10417 24.2708 4.71354 22.6094 2.82812 20.0156C0.942708 17.4219 0 14.5417 0 11.375V3.75L10 0L20 3.75V11.375C20 14.5417 19.0573 17.4219 17.1719 20.0156C15.2865 22.6094 12.8958 24.2708 10 25ZM10 22.375C12.1667 21.6875 13.9583 20.3125 15.375 18.25C16.7917 16.1875 17.5 13.8958 17.5 11.375V5.46875L10 2.65625L2.5 5.46875V11.375C2.5 13.8958 3.20833 16.1875 4.625 18.25C6.04167 20.3125 7.83333 21.6875 10 22.375Z" fill="#96EBD5"/>
</svg>
